<svg xmlns="http://www.w3.org/2000/svg" xmlns:xlink="http://www.w3.org/1999/xlink" width="38" height="38" viewBox="0 0 38 38" fill="none"><defs><rect id="path_0" x="0" y="0" width="25" height="25" /><path id="path_1"
        transform="translate(0 0) rotate(0 24 24)"
        d="M0,48L48,48L48,0L0,0L0,48Z" /></defs><g opacity="1" transform="translate(0 0)  rotate(0 19 19)"><path id="圆形 1" fill-rule="evenodd" style="fill:#ED0F77" transform="translate(0 0)  rotate(0 19 19)" opacity="1" d="M19,0C8.51,0 0,8.51 0,19C0,29.49 8.51,38 19,38C29.49,38 38,29.49 38,19C38,8.51 29.49,0 19,0Z " /><g opacity="1" transform="translate(6 6)  rotate(0 12.5 12.5)"><mask id="bg-mask-0" fill="white"><use xlink:href="#path_0"></use></mask><g mask="url(#bg-mask-0)" ><mask id="mask-1" fill="white"><use xlink:href="#path_1"></use></mask><g mask="url(#mask-1)"></g><g mask="url(#mask-1)"><path  id="Vector" style="stroke:#FFFFFF; stroke-width:1; stroke-opacity:1; stroke-dasharray:0 0" transform="translate(5 4)  rotate(0 8 8)" d="M0 4.71L0 16L16 16L16 4.71L8 0L0 4.71Z M6.12 9.88L6.12 16L9.88 16L9.88 9.88L6.12 9.88Z " /></g></g></g></g></svg>